<?xml version="1.0" encoding="utf-8"?>
<svg xmlns="http://www.w3.org/2000/svg" height="512pt" version="1.1" viewBox="0 0 512 512" width="512pt">
<path d="M 0.00 0.00 L 512.00 0.00 L 512.00 512.00 L 0.00 512.00 L 0.00 0.00 Z" fill="transparent" opacity="1.00" stroke="transparent" stroke-width="0.25"/>
<path d="M 83.84 17.58 C 86.04 16.42 88.47 15.57 90.99 15.76 C 179.99 15.74 268.99 15.79 357.99 15.74 C 360.26 15.60 362.38 16.60 364.42 17.47 C 364.77 17.98 365.47 18.99 365.82 19.49 L 366.47 19.37 C 367.17 21.10 367.76 22.87 368.30 24.65 C 368.23 32.39 368.28 40.12 368.25 47.86 C 375.17 47.86 382.09 47.80 389.02 47.80 C 391.51 47.71 393.98 48.40 396.15 49.61 C 396.84 50.43 397.57 51.20 398.36 51.93 C 399.07 53.55 399.75 55.22 399.71 57.02 C 399.81 96.60 399.76 136.19 399.81 175.77 C 415.21 175.93 430.62 175.77 446.03 175.82 C 452.80 176.22 459.64 177.18 465.97 179.73 C 466.71 180.05 467.46 180.36 468.21 180.68 C 471.71 182.31 475.06 184.27 478.07 186.72 C 480.50 188.62 482.85 190.69 484.74 193.16 C 487.34 196.11 489.27 199.55 491.22 202.95 C 491.77 204.35 492.33 205.75 492.89 207.16 C 495.08 212.20 495.65 217.64 496.18 223.05 C 494.26 230.71 492.02 238.31 489.76 245.88 C 488.26 251.77 486.62 257.62 485.12 263.51 C 484.65 264.97 484.25 266.45 483.81 267.92 C 483.27 269.97 482.65 271.99 482.07 274.02 C 481.75 275.03 481.45 276.05 481.16 277.07 C 478.99 285.81 476.42 294.45 474.16 303.16 C 472.50 308.35 471.60 313.74 469.80 318.88 C 469.59 319.92 469.39 320.97 469.20 322.02 C 468.72 323.31 468.31 324.62 467.87 325.93 C 467.35 327.99 466.72 330.02 466.11 332.06 C 464.74 337.05 463.37 342.04 462.15 347.07 C 461.41 349.39 460.74 351.73 460.18 354.10 C 457.86 361.62 455.99 369.27 453.86 376.84 C 453.38 379.00 452.79 381.14 452.23 383.29 C 451.08 386.85 450.19 390.50 449.14 394.09 C 447.21 401.72 445.19 409.33 442.84 416.84 C 442.50 418.16 442.15 419.48 441.77 420.80 C 439.94 427.61 438.19 434.44 436.14 441.19 C 435.50 443.19 434.85 445.19 434.28 447.21 C 433.73 448.77 433.24 450.36 432.68 451.93 C 431.82 459.08 430.93 466.33 427.84 472.93 C 426.95 474.62 426.03 476.29 425.13 477.97 C 422.35 482.15 418.70 485.67 414.85 488.85 C 412.96 489.98 411.08 491.11 409.20 492.25 C 407.48 492.89 405.76 493.52 404.07 494.22 C 402.71 494.53 401.36 494.85 400.02 495.24 C 396.37 495.75 392.68 495.88 389.00 495.89 C 277.66 495.81 166.33 495.94 54.99 495.83 C 49.39 496.05 43.93 494.55 38.87 492.23 C 37.27 491.14 35.60 490.17 33.89 489.28 C 32.32 488.14 30.84 486.90 29.38 485.63 C 27.00 483.26 24.57 480.89 22.80 478.00 C 21.53 475.67 20.20 473.37 19.19 470.91 C 18.71 469.63 18.25 468.35 17.76 467.09 C 17.46 465.79 17.16 464.51 16.80 463.25 C 15.12 449.90 16.03 436.41 15.92 423.00 C 15.71 366.32 15.92 309.65 15.83 252.97 C 15.99 244.28 14.94 235.24 18.15 226.95 C 21.22 219.03 26.62 212.06 33.56 207.17 C 36.48 205.09 39.65 203.35 43.05 202.20 C 44.30 201.73 45.56 201.28 46.81 200.79 C 57.71 199.00 68.81 200.12 79.80 199.85 C 79.78 142.24 79.83 84.64 79.78 27.03 C 79.67 24.52 80.37 22.04 81.56 19.84 C 82.33 19.09 83.09 18.34 83.84 17.58 Z" fill="#010101" opacity="1.00" stroke="#010101" stroke-width="0.25"/>
<path d="M 95.77 32.33 C 97.50 32.08 99.24 31.81 100.99 31.82 C 170.99 31.91 241.00 31.75 311.00 31.91 C 314.33 31.82 317.67 31.82 321.01 31.89 C 324.00 31.84 327.00 31.84 330.00 31.89 C 337.23 31.77 344.46 31.91 351.70 31.81 C 351.87 101.27 351.80 170.74 351.68 240.20 C 316.79 240.06 281.89 240.25 247.00 240.09 C 242.66 240.30 238.34 239.70 234.00 239.89 C 221.61 239.76 209.21 239.96 196.81 239.81 C 193.61 239.87 192.17 236.45 190.16 234.54 L 189.45 234.50 L 189.52 233.74 C 189.20 233.52 188.57 233.08 188.26 232.86 C 186.41 230.99 184.54 229.13 182.71 227.25 C 182.40 226.99 181.79 226.49 181.49 226.24 L 181.42 225.87 C 179.05 223.82 176.91 221.52 174.64 219.37 C 174.29 218.97 173.59 218.18 173.24 217.79 C 169.42 214.27 165.83 210.53 162.18 206.84 C 159.08 204.23 156.65 199.71 152.09 199.83 C 135.05 199.86 118.02 199.78 100.98 199.92 C 99.25 199.86 97.51 199.77 95.79 199.61 C 96.53 195.08 95.68 190.53 95.85 185.98 C 95.79 134.76 95.94 83.54 95.77 32.33 Z" fill="#ffffff" opacity="1.00" stroke="#ffffff" stroke-width="0.25"/>
<path d="M 168.79 48.83 C 173.57 48.38 178.38 48.41 183.16 48.83 C 185.50 49.40 187.76 50.22 189.95 51.23 C 191.68 52.10 193.32 53.14 194.92 54.26 C 196.22 55.19 197.50 56.17 198.70 57.24 C 200.37 58.98 201.87 60.88 203.21 62.90 C 203.47 63.38 204.00 64.34 204.26 64.82 C 204.93 66.49 205.62 68.15 206.34 69.80 C 207.38 74.12 207.97 78.53 207.83 82.98 C 207.62 90.67 208.62 98.66 205.89 106.03 C 205.09 107.88 204.23 109.71 203.34 111.52 C 203.05 111.93 202.47 112.75 202.18 113.16 C 201.05 114.95 199.56 116.74 199.60 118.97 C 199.38 121.84 201.14 124.25 202.72 126.45 C 207.80 128.79 213.65 127.08 219.06 127.76 C 221.46 128.45 223.89 129.13 226.00 130.52 C 226.24 130.54 226.72 130.57 226.96 130.59 C 227.30 130.87 227.98 131.42 228.32 131.70 C 230.83 133.07 233.00 134.92 234.86 137.08 C 236.42 139.11 237.36 141.49 238.36 143.83 C 239.08 146.83 239.76 149.87 239.72 152.98 C 239.74 160.60 239.75 168.23 239.74 175.86 C 234.45 175.83 229.15 175.95 223.85 175.78 C 223.78 167.84 223.91 159.90 223.71 151.96 C 223.80 147.65 219.88 144.15 215.73 143.89 C 209.08 143.50 201.93 144.87 195.87 141.35 C 193.33 139.53 191.07 137.34 189.23 134.81 C 188.28 133.32 187.40 131.78 186.61 130.20 C 186.13 128.87 185.61 127.56 185.14 126.23 C 184.34 126.41 182.75 126.76 181.95 126.94 C 178.69 127.69 175.30 127.54 172.00 127.14 C 170.35 126.66 168.65 126.45 166.96 126.22 C 165.50 131.05 162.78 135.53 158.93 138.84 C 155.72 141.20 152.15 143.33 148.07 143.60 C 142.67 144.41 136.75 142.45 131.85 145.59 C 131.09 146.40 130.33 147.20 129.55 147.99 C 128.90 149.55 128.25 151.14 128.24 152.86 C 127.97 160.49 128.07 168.13 128.16 175.77 C 122.72 175.88 117.28 175.85 111.83 175.75 C 111.76 168.84 111.78 161.92 111.78 155.01 C 111.76 150.50 112.72 146.03 114.54 141.91 C 117.06 136.48 121.39 132.20 126.74 129.56 C 132.57 127.07 138.92 127.79 145.08 127.55 C 147.60 127.57 149.37 125.56 150.97 123.89 C 152.94 120.35 152.49 116.25 149.72 113.29 C 149.23 112.43 148.75 111.57 148.27 110.72 C 147.26 108.94 146.52 107.04 145.74 105.15 C 143.72 98.98 144.27 92.41 144.20 86.02 C 144.13 82.00 144.24 77.98 144.77 73.99 C 145.45 71.96 146.10 69.92 146.70 67.86 C 148.33 63.74 150.58 59.87 153.73 56.71 C 155.43 55.40 157.09 54.04 158.80 52.74 C 160.16 52.09 161.50 51.41 162.82 50.69 C 164.80 50.02 166.79 49.42 168.79 48.83 Z" fill="#010101" opacity="1.00" stroke="#010101" stroke-width="0.25"/>
<path d="M 259.85 49.57 C 261.74 48.68 263.70 47.62 265.86 47.73 C 285.96 47.76 306.06 47.76 326.15 47.75 C 328.40 47.66 330.46 48.67 332.50 49.51 C 335.38 52.17 336.58 56.15 336.28 60.00 C 336.07 68.85 336.62 77.73 335.97 86.55 C 335.77 91.73 331.33 96.13 326.14 96.17 C 306.42 96.30 286.70 96.16 266.99 96.22 C 264.47 96.38 262.11 95.40 259.95 94.23 C 259.26 93.48 258.55 92.76 257.84 92.04 C 256.36 89.63 255.67 86.82 255.75 83.99 C 255.74 75.68 255.76 67.36 255.75 59.04 C 255.61 56.51 256.48 54.08 257.55 51.83 C 258.33 51.10 259.10 50.34 259.85 49.57 Z" fill="#010101" opacity="1.00" stroke="#010101" stroke-width="0.25"/>
<path d="M 167.19 66.21 C 172.33 63.27 178.71 63.04 184.06 65.56 C 186.48 67.37 188.64 69.48 190.45 71.90 C 192.44 76.99 192.13 82.59 192.18 87.96 C 192.13 93.60 192.81 99.68 189.81 104.76 C 185.19 111.82 175.54 113.87 168.03 110.49 C 165.63 108.63 163.33 106.62 161.56 104.13 C 158.63 96.76 160.01 88.72 159.69 81.00 C 159.44 75.18 162.46 69.54 167.19 66.21 Z" fill="#ffffff" opacity="1.00" stroke="#ffffff" stroke-width="0.25"/>
<path d="M 271.83 64.72 C 272.03 64.48 272.43 64.01 272.63 63.78 C 288.21 63.74 303.79 63.73 319.37 63.77 C 319.57 64.01 319.97 64.49 320.17 64.72 C 320.36 69.70 320.13 74.68 320.25 79.66 C 310.52 80.84 300.74 79.59 290.99 79.84 C 285.31 80.00 279.60 79.52 273.94 80.13 C 273.39 79.98 272.29 79.68 271.74 79.53 C 271.92 74.60 271.62 69.65 271.83 64.72 Z" fill="#ffffff" opacity="1.00" stroke="#ffffff" stroke-width="0.25"/>
<path d="M 367.82 68.94 C 367.76 67.16 367.98 65.40 368.43 63.68 C 371.96 63.91 375.50 63.67 379.01 64.07 C 380.54 63.94 382.08 63.83 383.62 63.72 C 383.89 122.56 383.73 181.41 383.72 240.25 C 378.56 240.18 373.40 240.16 368.25 240.24 C 368.15 237.16 368.12 234.08 368.11 231.00 C 367.89 219.00 367.71 207.00 368.11 194.99 C 368.22 191.33 367.83 187.68 367.87 184.02 C 368.13 178.34 367.81 172.68 367.89 167.00 C 367.82 155.00 367.79 143.00 367.92 131.00 C 367.87 129.00 367.86 127.00 367.92 125.00 C 367.76 106.31 367.87 87.63 367.82 68.94 Z" fill="#ffffff" opacity="1.00" stroke="#ffffff" stroke-width="0.25"/>
<path d="M 255.74 112.37 C 260.43 111.44 265.22 111.99 269.96 111.86 C 292.07 112.00 314.20 111.51 336.30 112.17 C 336.27 117.36 336.29 122.56 336.26 127.75 C 309.58 127.75 282.89 127.76 256.20 127.75 C 255.64 122.64 256.02 117.49 255.74 112.37 Z" fill="#010101" opacity="1.00" stroke="#010101" stroke-width="0.25"/>
<path d="M 256.16 159.80 C 256.19 154.46 256.11 149.12 256.25 143.78 C 282.91 143.85 309.58 143.75 336.24 143.84 C 336.33 149.14 336.23 154.45 336.28 159.76 C 309.57 159.88 282.87 159.79 256.16 159.80 Z" fill="#010101" opacity="1.00" stroke="#010101" stroke-width="0.25"/>
<path d="M 255.72 176.40 C 258.75 175.58 261.90 175.85 265.00 175.83 C 285.68 175.84 306.35 175.87 327.03 175.83 C 330.13 175.80 333.22 176.09 336.32 176.22 C 336.30 181.42 336.28 186.63 336.30 191.84 C 329.87 191.86 323.43 191.83 317.00 191.88 C 310.00 191.78 303.00 192.01 296.00 191.89 C 282.61 191.88 269.22 191.90 255.84 191.81 C 255.81 186.67 255.93 181.54 255.72 176.40 Z" fill="#010101" opacity="1.00" stroke="#010101" stroke-width="0.25"/>
<path d="M 399.76 192.30 C 415.51 192.14 431.26 192.21 447.02 192.25 C 450.46 192.22 453.87 192.84 457.19 193.73 C 459.10 194.50 460.99 195.32 462.83 196.24 C 465.77 197.80 468.48 199.77 470.82 202.16 C 472.67 204.33 474.39 206.63 475.75 209.15 C 476.47 210.75 477.17 212.36 477.83 214.00 C 478.29 215.30 478.77 216.60 479.27 217.91 C 480.10 222.29 479.55 226.77 477.80 230.87 C 477.58 231.91 477.37 232.95 477.17 234.00 C 476.70 235.31 476.30 236.65 475.87 237.97 C 475.54 239.31 475.23 240.67 474.85 242.00 C 472.96 247.92 471.67 253.99 469.87 259.93 C 469.29 261.98 468.68 264.02 468.16 266.09 C 465.83 273.60 464.03 281.27 461.80 288.81 C 461.46 290.16 461.11 291.51 460.71 292.85 C 460.54 293.64 460.38 294.43 460.23 295.23 C 459.43 297.75 458.69 300.28 457.81 302.77 C 457.59 303.85 457.37 304.93 457.16 306.02 C 456.27 308.47 455.68 311.01 455.16 313.56 C 454.80 314.68 454.45 315.80 454.12 316.93 C 453.37 319.28 452.74 321.65 452.14 324.04 C 451.65 325.62 451.26 327.22 450.81 328.82 C 450.00 332.27 448.95 335.66 448.22 339.14 C 447.82 340.47 447.45 341.80 447.09 343.15 C 446.79 344.34 446.55 345.56 446.34 346.77 L 445.91 346.42 C 445.65 347.93 445.33 349.44 444.79 350.88 C 444.56 351.90 444.35 352.93 444.15 353.96 C 443.69 355.30 443.30 356.67 442.84 358.02 C 442.61 359.06 442.39 360.10 442.17 361.15 C 440.68 365.78 439.42 370.49 438.21 375.20 C 437.33 377.78 436.68 380.43 435.78 383.00 C 435.63 383.75 435.33 385.26 435.19 386.01 C 433.95 389.54 433.19 393.22 432.89 396.95 C 431.99 392.72 431.68 388.42 431.93 384.11 C 432.39 378.75 431.60 373.39 431.92 368.02 C 431.75 340.69 431.89 313.35 431.85 286.02 C 431.72 279.34 432.56 272.36 429.77 266.07 C 428.60 262.84 426.62 260.01 424.84 257.11 C 423.55 255.44 422.11 253.89 420.62 252.40 C 419.41 251.30 418.20 250.21 416.99 249.13 C 413.41 246.37 409.32 244.40 405.18 242.65 C 403.58 242.07 401.97 241.51 400.32 241.17 C 400.05 239.77 399.79 238.37 399.80 236.94 C 399.78 222.06 399.80 207.18 399.76 192.30 Z" fill="#ffffff" opacity="1.00" stroke="#ffffff" stroke-width="0.25"/>
<path d="M 256.17 208.18 C 282.86 208.14 309.55 208.10 336.24 208.22 C 336.19 213.41 336.18 218.60 336.18 223.79 C 329.12 223.98 322.07 224.30 315.00 224.11 C 308.33 224.14 301.66 224.15 295.00 224.10 C 292.33 224.13 289.67 224.12 287.00 224.12 C 276.73 224.15 266.47 223.88 256.19 223.86 C 256.19 218.63 256.13 213.41 256.17 208.18 Z" fill="#010101" opacity="1.00" stroke="#010101" stroke-width="0.25"/>
<path d="M 46.03 218.19 C 49.40 216.36 53.28 216.17 57.02 216.22 C 87.01 216.22 116.99 216.20 146.97 216.24 C 147.99 216.22 148.81 216.62 149.44 217.44 C 158.67 226.69 167.86 236.00 177.46 244.87 L 177.40 245.54 L 178.47 245.52 L 178.50 246.20 C 180.94 248.30 182.98 250.81 185.44 252.88 L 185.46 253.53 L 186.20 253.55 C 186.44 253.91 186.92 254.62 187.16 254.98 C 188.62 255.79 190.25 256.27 191.94 256.19 C 257.96 256.21 323.98 256.12 390.00 256.23 C 393.74 256.16 397.50 256.62 400.97 258.07 C 402.00 258.62 403.04 259.16 404.10 259.69 C 405.68 260.78 407.19 261.98 408.69 263.18 C 410.77 265.18 412.36 267.58 413.76 270.08 C 416.37 274.62 415.77 280.00 415.78 285.02 C 415.69 342.68 415.79 400.34 415.76 458.00 C 415.89 461.04 415.00 463.98 413.81 466.74 C 411.94 469.80 409.77 472.70 406.85 474.82 C 405.31 475.95 403.69 476.95 402.01 477.85 C 400.98 478.26 399.95 478.67 398.93 479.08 C 395.65 479.77 392.31 480.18 388.96 480.17 C 277.65 480.17 166.33 480.17 55.01 480.16 C 51.17 480.11 47.38 479.25 44.03 477.35 C 40.79 475.15 37.96 472.38 35.72 469.17 C 35.45 468.72 34.91 467.82 34.64 467.37 C 32.12 463.02 31.86 457.88 31.83 452.98 C 31.85 420.65 31.82 388.33 31.88 356.00 C 31.82 318.33 31.90 280.66 31.78 242.99 C 31.80 238.57 32.29 234.05 34.19 230.00 C 35.10 228.32 36.08 226.68 37.23 225.15 C 38.42 223.72 39.72 222.39 41.11 221.17 C 42.71 220.11 44.35 219.12 46.03 218.19 Z" fill="#ffffff" opacity="1.00" stroke="#ffffff" stroke-width="0.25"/>
<path d="M 183.72 287.84 C 183.76 283.19 188.43 279.97 192.78 279.92 C 212.51 279.74 232.25 279.88 251.98 279.82 C 255.30 279.89 259.15 279.94 261.58 282.59 C 264.02 284.62 264.13 288.04 264.17 290.96 C 264.11 303.23 264.20 315.49 264.13 327.75 C 276.76 327.79 289.39 327.74 302.01 327.75 C 305.09 327.63 308.09 328.76 310.24 330.98 C 311.34 333.14 312.28 335.47 312.17 337.96 C 312.12 357.63 312.18 377.30 312.18 396.98 C 312.17 399.99 311.86 403.42 309.48 405.58 C 307.65 407.70 304.69 408.14 302.05 408.21 C 289.41 408.26 276.77 408.20 264.14 408.26 C 264.14 420.49 264.15 432.72 264.18 444.95 C 264.22 447.06 263.77 449.14 263.43 451.23 C 262.19 452.82 260.73 454.22 259.12 455.44 C 256.77 455.79 254.41 456.19 252.03 456.16 C 234.68 456.14 217.34 456.14 199.99 456.15 C 195.40 455.88 190.00 457.04 186.22 453.76 C 184.46 451.58 183.67 448.79 183.76 446.00 C 183.82 433.42 183.71 420.85 183.79 408.27 C 170.84 408.21 157.89 408.28 144.94 408.21 C 142.72 408.25 140.62 407.49 138.73 406.41 C 136.53 404.17 135.59 401.09 135.71 398.00 C 135.72 377.64 135.65 357.28 135.76 336.93 C 135.54 331.96 139.98 327.43 144.98 327.77 C 157.90 327.75 170.83 327.76 183.76 327.79 C 183.69 314.48 183.69 301.16 183.72 287.84 Z" fill="#010101" opacity="1.00" stroke="#010101" stroke-width="0.25"/>
<path d="M 200.17 296.20 C 216.02 296.17 231.86 296.19 247.70 296.19 C 247.75 309.13 247.72 322.06 247.76 334.99 C 247.69 337.56 248.61 339.99 249.87 342.19 C 251.26 342.82 252.59 343.77 254.19 343.78 C 268.00 344.52 281.84 343.96 295.67 344.18 C 295.61 360.18 295.84 376.18 295.59 392.18 C 292.06 392.15 288.53 392.14 285.00 392.08 C 280.00 392.17 275.00 392.15 270.00 392.10 C 265.08 392.21 260.16 392.05 255.25 392.22 C 253.09 392.20 251.41 393.65 249.66 394.70 C 247.16 398.33 247.83 402.86 247.76 407.01 C 247.70 418.07 247.87 429.14 247.65 440.20 C 237.09 439.92 226.55 440.03 215.98 440.09 C 210.58 440.10 205.19 439.74 199.79 439.83 C 199.65 425.49 200.10 411.13 199.48 396.80 C 198.12 395.29 196.92 393.50 195.03 392.62 C 190.79 391.45 186.34 391.87 182.00 391.96 C 178.66 391.70 175.33 392.13 172.00 392.02 C 165.22 391.47 158.41 392.78 151.65 391.82 C 151.83 375.94 151.71 360.05 151.69 344.17 C 158.11 343.64 164.56 344.42 171.00 344.10 C 178.33 344.27 185.64 343.91 192.97 343.80 C 194.51 343.79 195.84 342.95 197.20 342.35 C 198.96 340.29 200.36 337.84 200.19 335.04 C 200.22 322.09 200.13 309.14 200.17 296.20 Z" fill="#ffffff" opacity="1.00" stroke="#ffffff" stroke-width="0.25"/>
</svg>